<svg width="131" height="49" viewBox="0 0 131 49" fill="none" xmlns="http://www.w3.org/2000/svg">
<path d="M1 41.1981V33.4705H15.6132V2.04527C15.6132 2.04527 23.8723 -0.306583 28.5322 2.04527C31.4809 3.53351 33.4343 4.84386 35.0976 7.9697C39.2092 15.6972 37.4168 22.9412 32.3443 27.8037C27.6674 32.287 17.0957 27.8037 17.0957 27.8037" stroke="#004182" stroke-width="1.5" stroke-linecap="round"/>
<path d="M21.7549 29.3492L31.3341 46.865L38.486 38.1071" stroke="#004182" stroke-width="1.5" stroke-linecap="round"/>
<path d="M60.3973 30.6371C60.3973 34.997 59.2657 38.9091 57.4759 41.7079C55.6807 44.5151 53.2918 46.1149 50.7698 46.1149C48.2477 46.1149 45.8588 44.5151 44.0636 41.7079C42.2738 38.9091 41.1422 34.997 41.1422 30.6371C41.1422 26.2773 42.2738 22.3652 44.0636 19.5664C45.8588 16.7591 48.2477 15.1593 50.7698 15.1593C53.2918 15.1593 55.6807 16.7591 57.4759 19.5664C59.2657 22.3652 60.3973 26.2773 60.3973 30.6371Z" stroke="#004182" stroke-width="1.5"/>
<path d="M64.4885 15.4397C64.4885 15.4397 63.6416 29.3492 64.4885 36.0464C65.3355 42.7436 68.3004 45.0619 69.5713 45.8346C70.8421 46.6074 76.3483 47.8953 79.1016 45.8346C81.855 43.7739 83.3375 41.1981 84.1846 36.0464C85.0318 30.8947 84.1846 15.4397 84.1846 15.4397" stroke="#004182" stroke-width="1.5" stroke-linecap="round"/>
<path d="M89.4621 1.01497C89.4621 1.01497 89.2504 37.8495 89.4621 39.395C89.6739 40.9405 92.2154 43.774 93.0625 44.5467C93.9096 45.3195 95.7859 46.6432 97.7218 46.6074C99.5802 46.573 100.668 45.8789 102.169 44.5467C103.84 43.0646 104.606 41.7434 105.346 39.395C105.799 37.9581 105.945 37.0694 105.981 35.5313" stroke="#004182" stroke-width="1.5" stroke-linecap="round"/>
<path d="M90.0034 15.9548H106.311" stroke="#004182" stroke-width="1.5" stroke-linecap="round"/>
<path d="M129.999 36.4613C129.999 36.4613 128.771 41.0702 127.034 43.1584C125.48 45.0267 124.313 46.0301 122.163 46.507C120.195 46.9437 118.93 46.6607 117.08 45.7343C115.701 45.0438 114.971 44.4237 113.903 43.1584C112.154 41.086 111.605 39.3189 110.938 36.4613C110.416 34.2228 110.416 30.5368 110.416 30.5368M110.416 30.5368C110.416 30.5368 110.353 28.9761 110.416 28.4761C110.938 24.3548 113.48 19.9759 113.48 19.9759C113.48 19.9759 114.962 17.3577 117.08 16.6273C118.592 16.1058 120.624 15.7275 122.163 16.1121C124.265 16.6372 125.452 17.44 127.034 19.2031C128.093 20.3833 129.024 22.0765 129.575 24.6124C130.041 26.7518 129.999 30.5368 129.999 30.5368H110.416Z" stroke="#004182" stroke-width="1.5" stroke-linecap="round"/>
</svg>
